<svg xmlns="http://www.w3.org/2000/svg" viewBox="0 0 72 72" width="72" height="72">
  <defs>
    <radialGradient id="drop" cx="0.35" cy="0.3" r="0.75">
      <stop offset="0%" stop-color="#7CC8F0"></stop>
      <stop offset="40%" stop-color="#0075BA"></stop>
      <stop offset="100%" stop-color="#063B63"></stop>
    </radialGradient>
  </defs>
  <g transform="translate(6,2)">
    <path d="M30 0 C30 0 2 28 2 46 C2 60 14 70 30 70 C46 70 58 60 58 46 C58 28 30 0 30 0 Z" fill="url(#drop)"></path>
    <circle cx="30" cy="46" r="20" fill="#0a0a0a"></circle>
    <path d="M22 34 L22 58 L32 58 C38 58 42 53 42 46 C42 39 38 34 32 34 Z M28 39 L31 39 C34.5 39 37 41.5 37 46 C37 50.5 34.5 53 31 53 L28 53 Z" fill="#0075BA"></path>
    <ellipse cx="20" cy="20" rx="6" ry="10" fill="rgba(255,255,255,0.6)"></ellipse>
    <ellipse cx="24" cy="38" rx="5" ry="3" fill="rgba(255,255,255,0.4)"></ellipse>
  </g>
</svg>